%FSAX23Y23*%
%MOIN*%
G70*
G01*
G75*
G04 Layer_Physical_Order=2*
G04 Layer_Color=16711680*
%ADD10R,0.059X0.059*%
%ADD11C,0.059*%
%ADD12R,0.053X0.053*%
%ADD13C,0.053*%
%ADD14C,0.055*%
%ADD15C,0.047*%
%ADD16R,0.059X0.059*%
%ADD17C,0.020*%
G36*
X03937Y02099D02*
X03932Y02098D01*
X03922Y02111D01*
X03908Y02122D01*
X03893Y02130D01*
X03876Y02135D01*
X03858Y02137D01*
X03841Y02135D01*
X03824Y02130D01*
X03809Y02122D01*
X03795Y02111D01*
X03784Y02097D01*
X03776Y02081D01*
X03771Y02065D01*
X03769Y02047D01*
X03771Y02030D01*
X03776Y02013D01*
X03784Y01998D01*
X03795Y01984D01*
X03808Y01974D01*
X03807Y01969D01*
X03582D01*
X03581Y01974D01*
X03585Y01975D01*
X03594Y01981D01*
X03784Y02171D01*
X03784Y02171D01*
X03790Y02180D01*
X03794Y02190D01*
X03795Y02200D01*
X03795Y02200D01*
Y02205D01*
X03800Y02208D01*
X03810Y02204D01*
X03825Y02202D01*
X03840Y02204D01*
X03854Y02210D01*
X03866Y02219D01*
X03875Y02231D01*
X03881Y02245D01*
X03883Y02260D01*
X03883Y02261D01*
X03902Y02279D01*
X03902Y02279D01*
X03908Y02288D01*
X03912Y02298D01*
X03913Y02308D01*
X03913Y02308D01*
Y02891D01*
X03912Y02901D01*
X03908Y02911D01*
X03902Y02920D01*
X03893Y02926D01*
X03883Y02930D01*
X03873Y02931D01*
X03671D01*
X03671Y02931D01*
X03661Y02930D01*
X03651Y02926D01*
X03642Y02920D01*
X03642Y02920D01*
X03573Y02850D01*
X03570Y02850D01*
X03558Y02849D01*
X03547Y02845D01*
X03537Y02840D01*
X03528Y02832D01*
X03523Y02827D01*
X03517D01*
X03512Y02832D01*
X03503Y02840D01*
X03493Y02845D01*
X03482Y02849D01*
X03470Y02850D01*
X03467Y02850D01*
X03453Y02865D01*
X03444Y02871D01*
X03434Y02875D01*
X03424Y02876D01*
X03424Y02876D01*
X03100D01*
X03090Y02875D01*
X03080Y02871D01*
X03076Y02868D01*
X03071Y02865D01*
X03071Y02865D01*
X02906Y02700D01*
X02900Y02691D01*
X02896Y02681D01*
X02895Y02671D01*
X02895Y02671D01*
Y02604D01*
X02890Y02602D01*
X02820Y02672D01*
Y02786D01*
X02822Y02788D01*
X02830Y02797D01*
X02835Y02807D01*
X02836Y02811D01*
X02841Y02812D01*
X02851Y02801D01*
X02860Y02795D01*
X02870Y02791D01*
X02875Y02790D01*
Y02830D01*
X02880D01*
Y02835D01*
X02920D01*
X02919Y02840D01*
X02915Y02850D01*
X02909Y02859D01*
X02849Y02919D01*
X02840Y02925D01*
X02830Y02929D01*
X02820Y02930D01*
X02820Y02930D01*
X02570D01*
X02570Y02930D01*
X02560Y02929D01*
X02550Y02925D01*
X02541Y02919D01*
X02541Y02919D01*
X02328Y02705D01*
X02200D01*
X02200Y02705D01*
X02190Y02704D01*
X02180Y02700D01*
X02171Y02694D01*
X02171Y02694D01*
X02056Y02579D01*
X02050Y02570D01*
X02046Y02560D01*
X02045Y02550D01*
X02045Y02550D01*
Y02200D01*
X02045Y02200D01*
X02046Y02190D01*
X02050Y02180D01*
X02056Y02171D01*
X02116Y02111D01*
X02125Y02105D01*
X02135Y02101D01*
X02140Y02100D01*
Y02140D01*
X02150D01*
Y02100D01*
X02565D01*
X02565Y02100D01*
X02575Y02101D01*
X02585Y02105D01*
X02594Y02111D01*
X02632Y02150D01*
X02638D01*
X02806Y01981D01*
X02815Y01975D01*
X02819Y01974D01*
X02818Y01969D01*
X01972D01*
X01969Y01972D01*
X01969Y02823D01*
X01974Y02823D01*
X01984Y02811D01*
X01998Y02800D01*
X02013Y02791D01*
X02030Y02786D01*
X02047Y02785D01*
X02065Y02786D01*
X02081Y02791D01*
X02097Y02800D01*
X02111Y02811D01*
X02122Y02824D01*
X02130Y02840D01*
X02135Y02857D01*
X02137Y02874D01*
X02135Y02891D01*
X02130Y02908D01*
X02122Y02924D01*
X02111Y02937D01*
X02098Y02948D01*
X02099Y02953D01*
X03937D01*
Y02099D01*
D02*
G37*
G36*
X03718Y02647D02*
X03716Y02641D01*
X03715Y02631D01*
X03715Y02631D01*
Y02217D01*
X03701Y02203D01*
X03696Y02205D01*
X03709Y02645D01*
X03712Y02648D01*
X03714Y02650D01*
X03718Y02647D01*
D02*
G37*
G36*
X03815Y02417D02*
X03828Y02419D01*
X03833Y02415D01*
Y02325D01*
X03826Y02318D01*
X03825Y02318D01*
X03810Y02316D01*
X03800Y02312D01*
X03795Y02315D01*
Y02416D01*
X03799Y02419D01*
X03800Y02419D01*
X03815Y02417D01*
D02*
G37*
G36*
X02841Y02406D02*
Y02156D01*
X02842Y02146D01*
X02846Y02136D01*
X02852Y02128D01*
X02861Y02121D01*
X02871Y02117D01*
X02881Y02116D01*
X03607D01*
X03609Y02111D01*
X03548Y02050D01*
X03180D01*
Y02010D01*
X03170D01*
Y02050D01*
X02852D01*
X02675Y02227D01*
Y02500D01*
X02674Y02510D01*
X02670Y02520D01*
X02664Y02529D01*
X02655Y02535D01*
X02651Y02537D01*
X02652Y02542D01*
X02705D01*
X02841Y02406D01*
D02*
G37*
G36*
X02595Y02489D02*
Y02227D01*
X02548Y02180D01*
X02170D01*
X02169Y02185D01*
X02178Y02190D01*
X02187Y02198D01*
X02189Y02200D01*
X02282D01*
X02282Y02200D01*
X02292Y02201D01*
X02302Y02205D01*
X02311Y02211D01*
X02590Y02491D01*
X02595Y02489D01*
D02*
G37*
G36*
X03328Y02579D02*
X03336Y02573D01*
X03346Y02569D01*
X03356Y02568D01*
X03488D01*
X03488Y02568D01*
X03498Y02569D01*
X03508Y02573D01*
X03517Y02579D01*
X03567Y02630D01*
X03570Y02630D01*
X03582Y02631D01*
X03593Y02635D01*
X03603Y02640D01*
X03612Y02648D01*
X03617Y02653D01*
X03623D01*
X03628Y02648D01*
X03628Y02647D01*
X03615Y02197D01*
X02991D01*
X02988Y02200D01*
X02989Y02210D01*
X02987Y02224D01*
X02982Y02237D01*
X02975Y02246D01*
Y02396D01*
X02980Y02398D01*
X03071Y02306D01*
X03071Y02306D01*
X03076Y02303D01*
X03080Y02300D01*
X03090Y02296D01*
X03100Y02295D01*
X03275D01*
X03275Y02295D01*
X03285Y02296D01*
X03295Y02300D01*
X03304Y02306D01*
X03370Y02373D01*
X03372Y02372D01*
X03375Y02371D01*
X03376Y02362D01*
X03380Y02352D01*
X03385Y02346D01*
Y02302D01*
X03384Y02301D01*
X03375Y02289D01*
X03369Y02275D01*
X03367Y02260D01*
X03369Y02245D01*
X03375Y02231D01*
X03384Y02219D01*
X03396Y02210D01*
X03410Y02204D01*
X03425Y02202D01*
X03440Y02204D01*
X03454Y02210D01*
X03466Y02219D01*
X03475Y02231D01*
X03481Y02245D01*
X03483Y02260D01*
X03481Y02275D01*
X03475Y02289D01*
X03466Y02301D01*
X03465Y02302D01*
Y02362D01*
X03464Y02372D01*
X03460Y02382D01*
X03457Y02386D01*
X03455Y02388D01*
Y02433D01*
X03456Y02434D01*
X03465Y02446D01*
X03471Y02460D01*
X03473Y02475D01*
X03471Y02490D01*
X03465Y02504D01*
X03456Y02516D01*
X03444Y02525D01*
X03430Y02531D01*
X03415Y02533D01*
X03400Y02531D01*
X03386Y02525D01*
X03374Y02516D01*
X03365Y02504D01*
X03359Y02490D01*
X03357Y02475D01*
X03357Y02474D01*
X03258Y02375D01*
X03227D01*
X03224Y02380D01*
X03225Y02381D01*
X03231Y02395D01*
X03233Y02410D01*
X03231Y02425D01*
X03225Y02439D01*
X03216Y02451D01*
X03215Y02452D01*
Y02514D01*
X03217Y02516D01*
X03220Y02520D01*
X03224Y02530D01*
X03225Y02540D01*
Y02621D01*
X03225Y02621D01*
X03234Y02632D01*
X03240Y02646D01*
X03242Y02658D01*
X03247Y02660D01*
X03328Y02579D01*
D02*
G37*
G36*
X02620Y02828D02*
X02409Y02616D01*
X02405Y02618D01*
Y02625D01*
X02365D01*
X02364Y02630D01*
X02365Y02630D01*
X02374Y02636D01*
X02587Y02850D01*
X02620D01*
Y02828D01*
D02*
G37*
G36*
X03410Y02792D02*
X03410Y02790D01*
X03411Y02778D01*
X03415Y02767D01*
X03420Y02757D01*
X03428Y02748D01*
X03433Y02743D01*
Y02737D01*
X03428Y02732D01*
X03420Y02723D01*
X03415Y02713D01*
X03411Y02702D01*
X03410Y02690D01*
X03411Y02678D01*
X03415Y02667D01*
X03420Y02657D01*
X03423Y02653D01*
X03421Y02648D01*
X03373D01*
X03242Y02780D01*
Y02796D01*
X03407D01*
X03410Y02792D01*
D02*
G37*
G36*
X02740Y02770D02*
X02740Y02766D01*
Y02655D01*
X02740Y02655D01*
X02741Y02645D01*
X02745Y02635D01*
X02751Y02626D01*
X02881Y02497D01*
X02883Y02486D01*
X02883Y02485D01*
X02879Y02482D01*
X02751Y02611D01*
X02742Y02617D01*
X02732Y02621D01*
X02722Y02622D01*
X02722Y02622D01*
X02624D01*
X02614Y02621D01*
X02604Y02617D01*
X02600Y02614D01*
X02595Y02611D01*
X02595Y02611D01*
X02265Y02280D01*
X02209D01*
X02205Y02280D01*
Y02342D01*
X02278Y02416D01*
X02280Y02418D01*
X02282Y02420D01*
X02349Y02505D01*
X02405D01*
Y02525D01*
X02415D01*
X02415Y02525D01*
X02425Y02526D01*
X02435Y02530D01*
X02444Y02536D01*
X02678Y02770D01*
X02740D01*
D02*
G37*
G36*
X03128Y02722D02*
X03181D01*
X03181Y02717D01*
X03170Y02716D01*
X03156Y02710D01*
X03145Y02701D01*
X03136Y02689D01*
X03130Y02676D01*
X03128Y02661D01*
X03130Y02646D01*
X03136Y02632D01*
X03145Y02621D01*
X03145Y02621D01*
Y02556D01*
X03140Y02550D01*
X03136Y02540D01*
X03135Y02530D01*
X03135Y02530D01*
Y02452D01*
X03134Y02451D01*
X03125Y02439D01*
X03119Y02425D01*
X03117Y02410D01*
X03119Y02395D01*
X03125Y02381D01*
X03126Y02380D01*
X03123Y02375D01*
X03117D01*
X02989Y02503D01*
X02987Y02514D01*
X02982Y02527D01*
X02975Y02536D01*
Y02654D01*
X03117Y02796D01*
X03128D01*
Y02722D01*
D02*
G37*
G36*
X02285Y02625D02*
Y02555D01*
X02220Y02472D01*
X02147Y02400D01*
X02125D01*
Y02533D01*
X02217Y02625D01*
X02281D01*
X02285Y02625D01*
D02*
G37*
%LPC*%
G36*
X02920Y02825D02*
X02885D01*
Y02790D01*
X02890Y02791D01*
X02900Y02795D01*
X02909Y02801D01*
X02915Y02810D01*
X02919Y02820D01*
X02920Y02825D01*
D02*
G37*
%LPD*%
D10*
X02680Y02830D02*
D03*
X03770Y02790D02*
D03*
D11*
X02780Y02830D02*
D03*
X02880D02*
D03*
X03470Y02690D02*
D03*
Y02790D02*
D03*
X03570Y02690D02*
D03*
Y02790D02*
D03*
X03670Y02690D02*
D03*
Y02790D02*
D03*
X03770Y02690D02*
D03*
X02345Y02665D02*
D03*
X02145Y02240D02*
D03*
Y02140D02*
D03*
D12*
X03185Y02779D02*
D03*
D13*
Y02661D02*
D03*
D14*
X03175Y02410D02*
D03*
Y02010D02*
D03*
X03415Y02475D02*
D03*
X03815D02*
D03*
X03425Y02260D02*
D03*
X03825D02*
D03*
D15*
X02935Y02500D02*
D03*
X02635D02*
D03*
X02935Y02210D02*
D03*
X02635D02*
D03*
D16*
X02345Y02565D02*
D03*
X02145Y02340D02*
D03*
D17*
X03703Y02790D02*
Y02825D01*
X03770Y02646D02*
Y02690D01*
X03755Y02631D02*
X03770Y02646D01*
X03755Y02200D02*
Y02631D01*
X03565Y02010D02*
X03755Y02200D01*
X03175Y02010D02*
X03565D01*
X02635Y02210D02*
X02835Y02010D01*
X03175D01*
X02145Y02140D02*
X02565D01*
X02635Y02210D01*
X02145Y02240D02*
X02282D01*
X02624Y02582D01*
X02722D01*
X02881Y02423D01*
Y02156D02*
Y02423D01*
Y02156D02*
X03654D01*
X03670Y02690D01*
X03424Y02836D02*
X03470Y02790D01*
X03100Y02836D02*
X03424D01*
X02935Y02671D02*
X03100Y02836D01*
X02935Y02500D02*
Y02671D01*
X03185Y02779D02*
X03356Y02608D01*
X03488D01*
X03570Y02690D01*
X02345Y02565D02*
X02415D01*
X02680Y02830D01*
X02145Y02340D02*
X02250Y02445D01*
X02345Y02565D01*
X03570Y02790D02*
X03671Y02891D01*
X03873D01*
Y02308D02*
Y02891D01*
X03825Y02260D02*
X03873Y02308D01*
X03670Y02790D02*
X03703D01*
Y02825D02*
X03728Y02850D01*
X03830D01*
Y02490D02*
Y02850D01*
X03815Y02475D02*
X03830Y02490D01*
X02200Y02665D02*
X02345D01*
X02085Y02550D02*
X02200Y02665D01*
X02085Y02200D02*
Y02550D01*
Y02200D02*
X02145Y02140D01*
X02345Y02665D02*
X02570Y02890D01*
X02820D01*
X02880Y02830D01*
X02935Y02210D02*
Y02500D01*
X02780Y02655D02*
Y02830D01*
Y02655D02*
X02935Y02500D01*
X03275Y02335D02*
X03415Y02475D01*
X03100Y02335D02*
X03275D01*
X02935Y02500D02*
X03100Y02335D01*
X02635Y02210D02*
Y02500D01*
X03415Y02372D02*
Y02475D01*
Y02372D02*
X03425Y02362D01*
Y02260D02*
Y02362D01*
X03185Y02540D02*
Y02661D01*
X03175Y02530D02*
X03185Y02540D01*
X03175Y02410D02*
Y02530D01*
M02*
